<svg width="702" height="176" viewBox="0 0 702 176" fill="none" xmlns="http://www.w3.org/2000/svg">
<path fill-rule="evenodd" clip-rule="evenodd" d="M634.247 0H653.606V176H634.247V0ZM682.643 176H702V0H682.643V176Z" fill="white"/>
<path fill-rule="evenodd" clip-rule="evenodd" d="M634.247 0H653.606V176H634.247V0ZM682.643 176H702V0H682.643V176Z" fill="white"/>
<path fill-rule="evenodd" clip-rule="evenodd" d="M537.596 0H556.954V176H537.596V0Z" fill="white"/>
<path fill-rule="evenodd" clip-rule="evenodd" d="M537.596 0H556.954V176H537.596V0Z" fill="white"/>
<path fill-rule="evenodd" clip-rule="evenodd" d="M440.807 0H460.166V176H440.807V0Z" fill="white"/>
<path fill-rule="evenodd" clip-rule="evenodd" d="M440.807 0H460.166V176H440.807V0Z" fill="white"/>
<path fill-rule="evenodd" clip-rule="evenodd" d="M319.686 0H339.044V176H319.686V0ZM290.649 176V0H271.291V176H290.649Z" fill="white"/>
<path fill-rule="evenodd" clip-rule="evenodd" d="M319.686 0H339.044V176H319.686V0ZM290.649 176V0H271.291V176H290.649Z" fill="white"/>
<path fill-rule="evenodd" clip-rule="evenodd" d="M135.621 0H154.979V176H135.621V0ZM203.374 176V0H184.016V176H203.374Z" fill="white"/>
<path fill-rule="evenodd" clip-rule="evenodd" d="M135.621 0H154.979V176H135.621V0ZM203.374 176V0H184.016V176H203.374Z" fill="white"/>
<path fill-rule="evenodd" clip-rule="evenodd" d="M0 176V0H19.3582V176H0ZM48.3955 176H67.7537V0H48.3955V176Z" fill="white"/>
<path fill-rule="evenodd" clip-rule="evenodd" d="M0 176V0H19.3582V176H0ZM48.3955 176H67.7537V0H48.3955V176Z" fill="white"/>
<path fill-rule="evenodd" clip-rule="evenodd" d="M0 176H19.3582V0H0V176ZM48.3955 176H67.7537V0H48.3955V176ZM135.621 176H154.979V0H135.621V176ZM203.374 176H184.016V0H203.374V176ZM271.291 0V176H290.649V0H271.291ZM319.686 176V0H339.044V176H319.686ZM440.807 0V176H460.166V0H440.807ZM537.596 176V0H556.954V176H537.596ZM634.247 0V176H653.606V0H634.247ZM682.643 176V0H702V176H682.643Z" fill="white"/>
</svg>
