<svg width="702" height="87" viewBox="0 0 702 87" fill="none" xmlns="http://www.w3.org/2000/svg">
<path fill-rule="evenodd" clip-rule="evenodd" d="M640.539 7.4565C636.345 11.6451 634.247 17.4447 634.247 24.8553V87H653.606V24.8553C653.606 21.6333 655.219 20.0223 658.445 20.0223H677.804C681.03 20.0223 682.643 21.6333 682.643 24.8553V87H702V24.8553C702 17.4447 699.743 11.6451 695.226 7.4565C691.031 2.94571 685.224 0.690308 677.804 0.690308H658.445C651.024 0.690308 645.056 2.94571 640.539 7.4565Z" fill="white"/>
<path fill-rule="evenodd" clip-rule="evenodd" d="M640.539 7.4565C636.345 11.6451 634.247 17.4447 634.247 24.8553V87H653.606V24.8553C653.606 21.6333 655.219 20.0223 658.445 20.0223H677.804C681.03 20.0223 682.643 21.6333 682.643 24.8553V87H702V24.8553C702 17.4447 699.743 11.6451 695.226 7.4565C691.031 2.94571 685.224 0.690308 677.804 0.690308H658.445C651.024 0.690308 645.056 2.94571 640.539 7.4565Z" fill="white"/>
<path fill-rule="evenodd" clip-rule="evenodd" d="M581.152 0.690308H513.398V20.0223H537.596V87H556.954V20.0223H581.152V0.690308Z" fill="white"/>
<path fill-rule="evenodd" clip-rule="evenodd" d="M581.152 0.690308H513.398V20.0223H537.596V87H556.954V20.0223H581.152V0.690308Z" fill="white"/>
<path fill-rule="evenodd" clip-rule="evenodd" d="M392.412 24.8553V44.1873C392.412 49.9869 394.025 55.1421 397.252 59.6529C400.8 64.1637 405.317 67.2245 410.802 68.8355L435.968 76.568C439.194 77.5348 440.807 79.6295 440.807 82.8515V87H460.166V82.8515C460.166 77.0518 458.391 71.8963 454.842 67.3857C451.616 62.8749 447.26 59.814 441.775 58.203L416.609 50.4702C413.383 49.5036 411.77 47.4093 411.77 44.1873V24.8553C411.77 21.6333 413.383 20.0223 416.609 20.0223H435.968C439.194 20.0223 440.807 21.6333 440.807 24.8553V34.5213H460.166V24.8553C460.166 17.4447 457.907 11.6451 453.39 7.4565C449.196 2.94571 443.389 0.690308 435.968 0.690308H416.609C409.189 0.690308 403.22 2.94571 398.704 7.4565C394.509 11.6451 392.412 17.4447 392.412 24.8553Z" fill="white"/>
<path fill-rule="evenodd" clip-rule="evenodd" d="M392.412 24.8553V44.1873C392.412 49.9869 394.025 55.1421 397.252 59.6529C400.8 64.1637 405.317 67.2245 410.802 68.8355L435.968 76.568C439.194 77.5348 440.807 79.6295 440.807 82.8515V87H460.166V82.8515C460.166 77.0518 458.391 71.8963 454.842 67.3857C451.616 62.8749 447.26 59.814 441.775 58.203L416.609 50.4702C413.383 49.5036 411.77 47.4093 411.77 44.1873V24.8553C411.77 21.6333 413.383 20.0223 416.609 20.0223H435.968C439.194 20.0223 440.807 21.6333 440.807 24.8553V34.5213H460.166V24.8553C460.166 17.4447 457.907 11.6451 453.39 7.4565C449.196 2.94571 443.389 0.690308 435.968 0.690308H416.609C409.189 0.690308 403.22 2.94571 398.704 7.4565C394.509 11.6451 392.412 17.4447 392.412 24.8553Z" fill="white"/>
<path fill-rule="evenodd" clip-rule="evenodd" d="M277.582 7.4565C273.388 11.6451 271.291 17.4447 271.291 24.8553V87H290.649V24.8553C290.649 21.6333 292.262 20.0223 295.488 20.0223H314.846C318.073 20.0223 319.686 21.6333 319.686 24.8553V87H339.044V24.8553C339.044 17.4447 336.786 11.6451 332.269 7.4565C328.075 2.94571 322.267 0.690308 314.846 0.690308H295.488C288.068 0.690308 282.099 2.94571 277.582 7.4565Z" fill="white"/>
<path fill-rule="evenodd" clip-rule="evenodd" d="M277.582 7.4565C273.388 11.6451 271.291 17.4447 271.291 24.8553V87H290.649V24.8553C290.649 21.6333 292.262 20.0223 295.488 20.0223H314.846C318.073 20.0223 319.686 21.6333 319.686 24.8553V87H339.044V24.8553C339.044 17.4447 336.786 11.6451 332.269 7.4565C328.075 2.94571 322.267 0.690308 314.846 0.690308H295.488C288.068 0.690308 282.099 2.94571 277.582 7.4565Z" fill="white"/>
<path fill-rule="evenodd" clip-rule="evenodd" d="M179.176 0.690308H135.621V87H154.979V20.0223H179.176C182.403 20.0223 184.016 21.6333 184.016 24.8553V87H203.374V24.8553C203.374 17.4447 201.116 11.6451 196.599 7.4565C192.405 2.94571 186.597 0.690308 179.176 0.690308Z" fill="white"/>
<path fill-rule="evenodd" clip-rule="evenodd" d="M179.176 0.690308H135.621V87H154.979V20.0223H179.176C182.403 20.0223 184.016 21.6333 184.016 24.8553V87H203.374V24.8553C203.374 17.4447 201.116 11.6451 196.599 7.4565C192.405 2.94571 186.597 0.690308 179.176 0.690308Z" fill="white"/>
<path fill-rule="evenodd" clip-rule="evenodd" d="M43.556 0.690308H0V87H19.3582V20.0223H43.556C46.7823 20.0223 48.3955 21.6333 48.3955 24.8553V87H67.7537V24.8553C67.7537 17.4447 65.4953 11.6451 60.9783 7.4565C56.7841 2.94571 50.9766 0.690308 43.556 0.690308Z" fill="white"/>
<path fill-rule="evenodd" clip-rule="evenodd" d="M43.556 0.690308H0V87H19.3582V20.0223H43.556C46.7823 20.0223 48.3955 21.6333 48.3955 24.8553V87H67.7537V24.8553C67.7537 17.4447 65.4953 11.6451 60.9783 7.4565C56.7841 2.94571 50.9766 0.690308 43.556 0.690308Z" fill="white"/>
<path fill-rule="evenodd" clip-rule="evenodd" d="M634.247 87H653.606V24.8553C653.606 21.6333 655.219 20.0223 658.445 20.0223H677.804C681.03 20.0223 682.643 21.6333 682.643 24.8553V87H702V24.8553C702 17.4447 699.743 11.6451 695.226 7.4565C691.031 2.94571 685.224 0.690308 677.804 0.690308H658.445C651.024 0.690308 645.056 2.94571 640.539 7.4565C636.345 11.6451 634.247 17.4447 634.247 24.8553V87ZM556.954 87V20.0223H581.152V0.690308H513.398V20.0223H537.596V87H556.954ZM460.166 87V82.8515C460.166 77.0518 458.391 71.8963 454.842 67.3857C451.616 62.8749 447.26 59.814 441.775 58.203L416.609 50.4702C413.383 49.5036 411.77 47.4093 411.77 44.1873V24.8553C411.77 21.6333 413.383 20.0223 416.609 20.0223H435.968C439.194 20.0223 440.807 21.6333 440.807 24.8553V34.5213H460.166V24.8553C460.166 17.4447 457.907 11.6451 453.39 7.4565C449.196 2.94571 443.389 0.690308 435.968 0.690308H416.609C409.189 0.690308 403.22 2.94571 398.704 7.4565C394.509 11.6451 392.412 17.4447 392.412 24.8553V44.1873C392.412 49.9869 394.025 55.1421 397.252 59.6529C400.8 64.1637 405.317 67.2245 410.802 68.8355L435.968 76.568C439.194 77.5348 440.807 79.6295 440.807 82.8515V87H460.166ZM339.044 87V24.8553C339.044 17.4447 336.786 11.6451 332.269 7.4565C328.075 2.94571 322.267 0.690308 314.846 0.690308H295.488C288.068 0.690308 282.099 2.94571 277.582 7.4565C273.388 11.6451 271.291 17.4447 271.291 24.8553V87H290.649V24.8553C290.649 21.6333 292.262 20.0223 295.488 20.0223H314.846C318.073 20.0223 319.686 21.6333 319.686 24.8553V87H339.044ZM203.374 87V24.8553C203.374 17.4447 201.116 11.6451 196.599 7.4565C192.405 2.94571 186.597 0.690308 179.176 0.690308H135.621V87H154.979V20.0223H179.176C182.403 20.0223 184.016 21.6333 184.016 24.8553V87H203.374ZM67.7537 87V24.8553C67.7537 17.4447 65.4953 11.6451 60.9783 7.4565C56.7841 2.94571 50.9766 0.690308 43.556 0.690308H0V87H19.3582V20.0223H43.556C46.7823 20.0223 48.3955 21.6333 48.3955 24.8553V87H67.7537Z" fill="white"/>
</svg>
