<svg width="702" height="76" viewBox="0 0 702 76" fill="none" xmlns="http://www.w3.org/2000/svg">
<path fill-rule="evenodd" clip-rule="evenodd" d="M634.247 0H653.606V51.8348C653.606 55.0568 655.219 56.6678 658.445 56.6678H677.804C681.03 56.6678 682.643 55.0568 682.643 51.8348V0H702V51.8348C702 59.2456 699.743 65.2066 695.226 69.7172C691.031 73.9059 685.224 75.9999 677.804 75.9999H658.445C651.024 75.9999 645.056 73.9059 640.539 69.7172C636.345 65.2066 634.247 59.2456 634.247 51.8348V0Z" fill="white"/>
<path fill-rule="evenodd" clip-rule="evenodd" d="M634.247 0H653.606V51.8348C653.606 55.0568 655.219 56.6678 658.445 56.6678H677.804C681.03 56.6678 682.643 55.0568 682.643 51.8348V0H702V51.8348C702 59.2456 699.743 65.2066 695.226 69.7172C691.031 73.9059 685.224 75.9999 677.804 75.9999H658.445C651.024 75.9999 645.056 73.9059 640.539 69.7172C636.345 65.2066 634.247 59.2456 634.247 51.8348V0Z" fill="white"/>
<path fill-rule="evenodd" clip-rule="evenodd" d="M537.596 0H556.954V75.9999H537.596V0Z" fill="white"/>
<path fill-rule="evenodd" clip-rule="evenodd" d="M537.596 0H556.954V75.9999H537.596V0Z" fill="white"/>
<path fill-rule="evenodd" clip-rule="evenodd" d="M460.166 0H440.807V51.8348C440.807 55.0568 439.194 56.6678 435.968 56.6678H416.609C413.383 56.6678 411.77 55.0568 411.77 51.8348V42.1688H392.412V51.8348C392.412 59.2456 394.509 65.2066 398.704 69.7172C403.22 73.9059 409.189 75.9999 416.609 75.9999H435.968C443.389 75.9999 449.196 73.9059 453.39 69.7172C457.907 65.2066 460.166 59.2456 460.166 51.8348V0Z" fill="white"/>
<path fill-rule="evenodd" clip-rule="evenodd" d="M460.166 0H440.807V51.8348C440.807 55.0568 439.194 56.6678 435.968 56.6678H416.609C413.383 56.6678 411.77 55.0568 411.77 51.8348V42.1688H392.412V51.8348C392.412 59.2456 394.509 65.2066 398.704 69.7172C403.22 73.9059 409.189 75.9999 416.609 75.9999H435.968C443.389 75.9999 449.196 73.9059 453.39 69.7172C457.907 65.2066 460.166 59.2456 460.166 51.8348V0Z" fill="white"/>
<path fill-rule="evenodd" clip-rule="evenodd" d="M319.686 0H339.044V51.8348C339.044 59.2456 336.786 65.2066 332.269 69.7172C328.075 73.9059 322.267 75.9999 314.846 75.9999H295.488C288.068 75.9999 282.099 73.9059 277.582 69.7172C273.388 65.2066 271.291 59.2456 271.291 51.8348V0H290.649V51.8348C290.649 55.0568 292.262 56.6678 295.488 56.6678H314.846C318.073 56.6678 319.686 55.0568 319.686 51.8348V0Z" fill="white"/>
<path fill-rule="evenodd" clip-rule="evenodd" d="M319.686 0H339.044V51.8348C339.044 59.2456 336.786 65.2066 332.269 69.7172C328.075 73.9059 322.267 75.9999 314.846 75.9999H295.488C288.068 75.9999 282.099 73.9059 277.582 69.7172C273.388 65.2066 271.291 59.2456 271.291 51.8348V0H290.649V51.8348C290.649 55.0568 292.262 56.6678 295.488 56.6678H314.846C318.073 56.6678 319.686 55.0568 319.686 51.8348V0Z" fill="white"/>
<path fill-rule="evenodd" clip-rule="evenodd" d="M154.979 0H135.621V75.9999H154.979V27.6704H157.399L181.596 75.9999H203.374L179.176 27.6704C186.597 27.6704 192.405 25.5756 196.599 21.3869C201.116 16.8763 203.374 10.916 203.374 3.50522V0H184.016V3.50522C184.016 6.72723 182.403 8.33823 179.176 8.33823H154.979V0Z" fill="white"/>
<path fill-rule="evenodd" clip-rule="evenodd" d="M154.979 0H135.621V75.9999H154.979V27.6704H157.399L181.596 75.9999H203.374L179.176 27.6704C186.597 27.6704 192.405 25.5756 196.599 21.3869C201.116 16.8763 203.374 10.916 203.374 3.50522V0H184.016V3.50522C184.016 6.72723 182.403 8.33823 179.176 8.33823H154.979V0Z" fill="white"/>
<path fill-rule="evenodd" clip-rule="evenodd" d="M0 0V75.9999H19.3582V27.6704H43.556C50.9766 27.6704 56.7841 25.5756 60.9783 21.3869C65.4953 16.8763 67.7537 10.916 67.7537 3.50522V0H48.3955V3.50522C48.3955 6.72723 46.7823 8.33826 43.556 8.33826H19.3582V0H0Z" fill="white"/>
<path fill-rule="evenodd" clip-rule="evenodd" d="M0 0V75.9999H19.3582V27.6704H43.556C50.9766 27.6704 56.7841 25.5756 60.9783 21.3869C65.4953 16.8763 67.7537 10.916 67.7537 3.50522V0H48.3955V3.50522C48.3955 6.72723 46.7823 8.33826 43.556 8.33826H19.3582V0H0Z" fill="white"/>
<path fill-rule="evenodd" clip-rule="evenodd" d="M682.643 0H702V51.8348C702 59.2456 699.743 65.2066 695.226 69.7172C691.031 73.9059 685.224 75.9999 677.804 75.9999H658.445C651.024 75.9999 645.056 73.9059 640.539 69.7172C636.345 65.2066 634.247 59.2456 634.247 51.8348V0H653.606V51.8348C653.606 55.0568 655.219 56.6678 658.445 56.6678H677.804C681.03 56.6678 682.643 55.0568 682.643 51.8348V0ZM0 0V75.9999H19.3582V27.6704H43.556C50.9766 27.6704 56.7841 25.5756 60.9783 21.3869C65.4953 16.8763 67.7537 10.916 67.7537 3.50522V0H48.3955V3.50522C48.3955 6.72723 46.7823 8.33826 43.556 8.33826H19.3582V0H0ZM135.621 0V75.9999H154.979V27.6704H157.399L181.596 75.9999H203.374L179.176 27.6704C186.597 27.6704 192.405 25.5756 196.599 21.3869C201.116 16.8763 203.374 10.916 203.374 3.50522V0H184.016V3.50522C184.016 6.72723 182.403 8.33823 179.176 8.33823H154.979V0H135.621ZM271.291 0V51.8348C271.291 59.2456 273.388 65.2066 277.582 69.7172C282.099 73.9059 288.068 75.9999 295.488 75.9999H314.846C322.267 75.9999 328.075 73.9059 332.269 69.7172C336.786 65.2066 339.044 59.2456 339.044 51.8348V0H319.686V51.8348C319.686 55.0568 318.073 56.6678 314.846 56.6678H295.488C292.262 56.6678 290.649 55.0568 290.649 51.8348V0H271.291ZM440.807 0V51.8348C440.807 55.0568 439.194 56.6678 435.968 56.6678H416.609C413.383 56.6678 411.77 55.0568 411.77 51.8348V42.1688H392.412V51.8348C392.412 59.2456 394.509 65.2066 398.704 69.7172C403.22 73.9059 409.189 75.9999 416.609 75.9999H435.968C443.389 75.9999 449.196 73.9059 453.39 69.7172C457.907 65.2066 460.166 59.2456 460.166 51.8348V0H440.807ZM537.596 0V75.9999H556.954V0H537.596Z" fill="white"/>
</svg>
