<svg width="702" height="339" viewBox="0 0 702 339" fill="none" xmlns="http://www.w3.org/2000/svg">
<path d="M634.247 24.1649C634.247 16.7543 636.345 10.9548 640.539 6.76614C645.056 2.25534 651.024 -6.10352e-05 658.445 -6.10352e-05H677.804C685.224 -6.10352e-05 691.031 2.25534 695.226 6.76614C699.743 10.9548 702 16.7543 702 24.1649V314.144C702 321.555 699.743 327.516 695.226 332.027C691.031 336.216 685.224 338.31 677.804 338.31H658.445C651.024 338.31 645.056 336.216 640.539 332.027C636.345 327.516 634.247 321.555 634.247 314.144V24.1649ZM658.445 19.3319C655.219 19.3319 653.606 20.943 653.606 24.1649V314.144C653.606 317.366 655.219 318.977 658.445 318.977H677.804C681.03 318.977 682.643 317.366 682.643 314.144V24.1649C682.643 20.943 681.03 19.3319 677.804 19.3319H658.445Z" fill="black"/>
<path d="M634.247 24.1649C634.247 16.7543 636.345 10.9548 640.539 6.76614C645.056 2.25534 651.024 -6.10352e-05 658.445 -6.10352e-05H677.804C685.224 -6.10352e-05 691.031 2.25534 695.226 6.76614C699.743 10.9548 702 16.7543 702 24.1649V314.144C702 321.555 699.743 327.516 695.226 332.027C691.031 336.216 685.224 338.31 677.804 338.31H658.445C651.024 338.31 645.056 336.216 640.539 332.027C636.345 327.516 634.247 321.555 634.247 314.144V24.1649ZM658.445 19.3319C655.219 19.3319 653.606 20.943 653.606 24.1649V314.144C653.606 317.366 655.219 318.977 658.445 318.977H677.804C681.03 318.977 682.643 317.366 682.643 314.144V24.1649C682.643 20.943 681.03 19.3319 677.804 19.3319H658.445Z" fill="white"/>
<path d="M513.398 -6.10352e-05H581.152V19.3319H556.954V338.31H537.596V19.3319H513.398V-6.10352e-05Z" fill="black"/>
<path d="M513.398 -6.10352e-05H581.152V19.3319H556.954V338.31H537.596V19.3319H513.398V-6.10352e-05Z" fill="white"/>
<path d="M392.412 43.4969V24.1649C392.412 16.7543 394.509 10.9548 398.704 6.76614C403.22 2.25534 409.189 -6.10352e-05 416.609 -6.10352e-05H435.968C443.389 -6.10352e-05 449.196 2.25534 453.39 6.76614C457.907 10.9548 460.166 16.7543 460.166 24.1649V33.8309H440.807V24.1649C440.807 20.943 439.194 19.3319 435.968 19.3319H416.609C413.383 19.3319 411.77 20.943 411.77 24.1649V43.4969C411.77 46.7189 413.383 48.8132 416.609 49.7798L441.775 57.5126C447.26 59.1236 451.616 62.1845 454.842 66.6953C458.391 71.2059 460.166 76.3614 460.166 82.1612V314.144C460.166 321.555 457.907 327.516 453.39 332.027C449.196 336.216 443.389 338.31 435.968 338.31H416.609C409.189 338.31 403.22 336.216 398.704 332.027C394.509 327.516 392.412 321.555 392.412 314.144V304.478H411.77V314.144C411.77 317.366 413.383 318.977 416.609 318.977H435.968C439.194 318.977 440.807 317.366 440.807 314.144V82.1612C440.807 78.9392 439.194 76.8444 435.968 75.8777L410.802 68.1451C405.317 66.5341 400.8 63.4733 397.252 58.9625C394.025 54.4517 392.412 49.2965 392.412 43.4969Z" fill="black"/>
<path d="M392.412 43.4969V24.1649C392.412 16.7543 394.509 10.9548 398.704 6.76614C403.22 2.25534 409.189 -6.10352e-05 416.609 -6.10352e-05H435.968C443.389 -6.10352e-05 449.196 2.25534 453.39 6.76614C457.907 10.9548 460.166 16.7543 460.166 24.1649V33.8309H440.807V24.1649C440.807 20.943 439.194 19.3319 435.968 19.3319H416.609C413.383 19.3319 411.77 20.943 411.77 24.1649V43.4969C411.77 46.7189 413.383 48.8132 416.609 49.7798L441.775 57.5126C447.26 59.1236 451.616 62.1845 454.842 66.6953C458.391 71.2059 460.166 76.3614 460.166 82.1612V314.144C460.166 321.555 457.907 327.516 453.39 332.027C449.196 336.216 443.389 338.31 435.968 338.31H416.609C409.189 338.31 403.22 336.216 398.704 332.027C394.509 327.516 392.412 321.555 392.412 314.144V304.478H411.77V314.144C411.77 317.366 413.383 318.977 416.609 318.977H435.968C439.194 318.977 440.807 317.366 440.807 314.144V82.1612C440.807 78.9392 439.194 76.8444 435.968 75.8777L410.802 68.1451C405.317 66.5341 400.8 63.4733 397.252 58.9625C394.025 54.4517 392.412 49.2965 392.412 43.4969Z" fill="white"/>
<path d="M271.291 24.1649C271.291 16.7543 273.388 10.9548 277.582 6.76614C282.099 2.25534 288.068 -6.10352e-05 295.488 -6.10352e-05H314.847C322.267 -6.10352e-05 328.075 2.25534 332.269 6.76614C336.786 10.9548 339.044 16.7543 339.044 24.1649V314.144C339.044 321.555 336.786 327.516 332.269 332.027C328.075 336.216 322.267 338.31 314.847 338.31H295.488C288.068 338.31 282.099 336.216 277.582 332.027C273.388 327.516 271.291 321.555 271.291 314.144V24.1649ZM295.488 19.3319C292.262 19.3319 290.649 20.943 290.649 24.1649V314.144C290.649 317.366 292.262 318.977 295.488 318.977H314.847C318.073 318.977 319.686 317.366 319.686 314.144V24.1649C319.686 20.943 318.073 19.3319 314.847 19.3319H295.488Z" fill="black"/>
<path d="M271.291 24.1649C271.291 16.7543 273.388 10.9548 277.582 6.76614C282.099 2.25534 288.068 -6.10352e-05 295.488 -6.10352e-05H314.847C322.267 -6.10352e-05 328.075 2.25534 332.269 6.76614C336.786 10.9548 339.044 16.7543 339.044 24.1649V314.144C339.044 321.555 336.786 327.516 332.269 332.027C328.075 336.216 322.267 338.31 314.847 338.31H295.488C288.068 338.31 282.099 336.216 277.582 332.027C273.388 327.516 271.291 321.555 271.291 314.144V24.1649ZM295.488 19.3319C292.262 19.3319 290.649 20.943 290.649 24.1649V314.144C290.649 317.366 292.262 318.977 295.488 318.977H314.847C318.073 318.977 319.686 317.366 319.686 314.144V24.1649C319.686 20.943 318.073 19.3319 314.847 19.3319H295.488Z" fill="white"/>
<path d="M135.621 -6.10352e-05H179.176C186.597 -6.10352e-05 192.405 2.25534 196.599 6.76614C201.116 10.9548 203.374 16.7543 203.374 24.1649V265.815C203.374 273.226 201.116 279.186 196.599 283.696C192.405 287.885 186.597 289.98 179.176 289.98L203.374 338.31H181.596L157.399 289.98H154.979V338.31H135.621V-6.10352e-05ZM179.176 270.648C182.403 270.648 184.016 269.037 184.016 265.815V24.1649C184.016 20.943 182.403 19.3319 179.176 19.3319H154.979V270.648H179.176Z" fill="black"/>
<path d="M135.621 -6.10352e-05H179.176C186.597 -6.10352e-05 192.405 2.25534 196.599 6.76614C201.116 10.9548 203.374 16.7543 203.374 24.1649V265.815C203.374 273.226 201.116 279.186 196.599 283.696C192.405 287.885 186.597 289.98 179.176 289.98L203.374 338.31H181.596L157.399 289.98H154.979V338.31H135.621V-6.10352e-05ZM179.176 270.648C182.403 270.648 184.016 269.037 184.016 265.815V24.1649C184.016 20.943 182.403 19.3319 179.176 19.3319H154.979V270.648H179.176Z" fill="white"/>
<path d="M0 -6.10352e-05H43.556C50.9766 -6.10352e-05 56.7841 2.25534 60.9783 6.76614C65.4953 10.9548 67.7537 16.7543 67.7537 24.1649V265.815C67.7537 273.226 65.4953 279.186 60.9783 283.696C56.7841 287.885 50.9766 289.98 43.556 289.98H19.3582V338.31H0V-6.10352e-05ZM43.556 270.648C46.7823 270.648 48.3955 269.037 48.3955 265.815V24.1649C48.3955 20.943 46.7823 19.3319 43.556 19.3319H19.3582V270.648H43.556Z" fill="black"/>
<path d="M0 -6.10352e-05H43.556C50.9766 -6.10352e-05 56.7841 2.25534 60.9783 6.76614C65.4953 10.9548 67.7537 16.7543 67.7537 24.1649V265.815C67.7537 273.226 65.4953 279.186 60.9783 283.696C56.7841 287.885 50.9766 289.98 43.556 289.98H19.3582V338.31H0V-6.10352e-05ZM43.556 270.648C46.7823 270.648 48.3955 269.037 48.3955 265.815V24.1649C48.3955 20.943 46.7823 19.3319 43.556 19.3319H19.3582V270.648H43.556Z" fill="white"/>
</svg>
