<svg width="146" height="49" viewBox="0 0 146 49" fill="none" xmlns="http://www.w3.org/2000/svg">
<path d="M74.9893 2.85714C74.9893 1.98095 75.2373 1.29524 75.7331 0.800001C76.2672 0.266667 76.9729 0 77.8503 0H80.1391C81.0165 0 81.7031 0.266667 82.199 0.800001C82.7331 1.29524 83 1.98095 83 2.85714V37.1428C83 38.0191 82.7331 38.7239 82.199 39.2572C81.7031 39.7524 81.0165 40 80.1391 40H77.8503C76.9729 40 76.2672 39.7524 75.7331 39.2572C75.2373 38.7239 74.9893 38.0191 74.9893 37.1428V2.85714ZM77.8503 2.28572C77.4688 2.28572 77.2781 2.47619 77.2781 2.85714V37.1428C77.2781 37.5238 77.4688 37.7143 77.8503 37.7143H80.1391C80.5206 37.7143 80.7113 37.5238 80.7113 37.1428V2.85714C80.7113 2.47619 80.5206 2.28572 80.1391 2.28572H77.8503Z" fill="white"/>
<path d="M60.7008 0H68.7117V2.28572H65.8507V40H63.5618V2.28572H60.7008V0Z" fill="white"/>
<path d="M46.3961 5.14286V2.85714C46.3961 1.98095 46.644 1.29524 47.14 0.800001C47.674 0.266667 48.3798 0 49.2571 0H51.5459C52.4233 0 53.11 0.266667 53.6058 0.800001C54.1399 1.29524 54.4069 1.98095 54.4069 2.85714V4H52.1181V2.85714C52.1181 2.47619 51.9274 2.28572 51.5459 2.28572H49.2571C48.8756 2.28572 48.6849 2.47619 48.6849 2.85714V5.14286C48.6849 5.52381 48.8756 5.77143 49.2571 5.88572L52.2326 6.8C52.8811 6.99048 53.3961 7.35239 53.7775 7.88572C54.1971 8.41903 54.4069 9.02859 54.4069 9.71432V37.1428C54.4069 38.0191 54.1399 38.7239 53.6058 39.2572C53.11 39.7524 52.4233 40 51.5459 40H49.2571C48.3798 40 47.674 39.7524 47.14 39.2572C46.644 38.7239 46.3961 38.0191 46.3961 37.1428V36H48.6849V37.1428C48.6849 37.5238 48.8756 37.7143 49.2571 37.7143H51.5459C51.9274 37.7143 52.1181 37.5238 52.1181 37.1428V9.71432C52.1181 9.33337 51.9274 9.0857 51.5459 8.9714L48.5705 8.05714C47.9219 7.86666 47.3879 7.50477 46.9683 6.97143C46.5869 6.4381 46.3961 5.82857 46.3961 5.14286Z" fill="white"/>
<path d="M32.0753 2.85714C32.0753 1.98095 32.3232 1.29524 32.8191 0.800001C33.3531 0.266667 34.0589 0 34.9362 0H37.225C38.1024 0 38.7891 0.266667 39.285 0.800001C39.8191 1.29524 40.0861 1.98095 40.0861 2.85714V37.1428C40.0861 38.0191 39.8191 38.7239 39.285 39.2572C38.7891 39.7524 38.1024 40 37.225 40H34.9362C34.0589 40 33.3531 39.7524 32.8191 39.2572C32.3232 38.7239 32.0753 38.0191 32.0753 37.1428V2.85714ZM34.9362 2.28572C34.5547 2.28572 34.364 2.47619 34.364 2.85714V37.1428C34.364 37.5238 34.5547 37.7143 34.9362 37.7143H37.225C37.6065 37.7143 37.7972 37.5238 37.7972 37.1428V2.85714C37.7972 2.47619 37.6065 2.28572 37.225 2.28572H34.9362Z" fill="white"/>
<path d="M16.036 0H21.1858C22.0632 0 22.7499 0.266667 23.2458 0.800001C23.7798 1.29524 24.0468 1.98095 24.0468 2.85714V31.4286C24.0468 32.3048 23.7798 33.0095 23.2458 33.5428C22.7499 34.0381 22.0632 34.2858 21.1858 34.2858L24.0468 40H21.4719L18.6109 34.2858H18.3248V40H16.036V0ZM21.1858 32C21.5673 32 21.758 31.8095 21.758 31.4286V2.85714C21.758 2.47619 21.5673 2.28572 21.1858 2.28572H18.3248V32H21.1858Z" fill="white"/>
<path d="M0 0H5.14983C6.02721 0 6.71386 0.266667 7.20976 0.800001C7.74383 1.29524 8.01085 1.98095 8.01085 2.85714V31.4286C8.01085 32.3048 7.74383 33.0095 7.20976 33.5428C6.71386 34.0381 6.02721 34.2858 5.14983 34.2858H2.28881V40H0V0ZM5.14983 32C5.53131 32 5.72203 31.8095 5.72203 31.4286V2.85714C5.72203 2.47619 5.53131 2.28572 5.14983 2.28572H2.28881V32H5.14983Z" fill="white"/>
<path d="M137.672 40.1431C136.362 40.1431 135.34 39.7065 134.604 38.8333C133.892 37.96 133.536 36.7536 133.536 35.2139C133.513 33.2147 134.202 31.0661 135.604 28.7681C137.029 26.4701 138.43 25.4245 139.809 25.6313C141.303 25.3326 142.59 25.6543 143.67 26.5965C144.773 27.5387 145.324 29.0439 145.324 31.112C145.324 33.5479 144.543 35.6621 142.98 37.4545C141.441 39.2469 139.671 40.1431 137.672 40.1431ZM139.533 27.3548C138.361 27.8604 137.339 28.9404 136.466 30.595C135.615 32.2495 135.19 33.8466 135.19 35.3863C135.19 36.4204 135.409 37.2247 135.845 37.7992C136.305 38.3507 136.937 38.6265 137.741 38.6265C139.235 38.6265 140.602 37.8681 141.843 36.3515C143.084 34.8348 143.704 33.0883 143.704 31.112C143.681 29.8482 143.417 28.86 142.912 28.1476C142.406 27.4353 141.763 27.0791 140.981 27.0791C140.705 27.0791 140.441 27.1021 140.188 27.148C139.959 27.194 139.74 27.2629 139.533 27.3548Z" fill="#FF2626"/>
<path d="M121.39 38.3866L121.286 38.2832C120.666 40.4663 120.206 42.2242 119.908 43.5571C119.609 44.9129 119.459 45.9125 119.459 46.5559C119.459 46.6479 119.471 46.7972 119.494 47.004C119.54 47.2109 119.574 47.3717 119.597 47.4866C119.597 47.8313 119.482 48.1186 119.253 48.3484C119.046 48.6011 118.793 48.7275 118.494 48.7275C118.173 48.7275 117.92 48.6126 117.736 48.3828C117.529 48.153 117.426 47.8543 117.426 47.4866C117.426 46.7972 117.816 45.0048 118.598 42.1093C119.356 39.2139 120.103 36.5827 120.838 34.2158C122.171 29.9415 123.01 27.4482 123.355 26.7358C123.722 26.0005 124.136 25.6328 124.595 25.6328C124.848 25.6328 125.044 25.7132 125.181 25.8741C125.342 26.0119 125.423 26.2188 125.423 26.4945C125.423 26.7473 125.262 27.1495 124.94 27.701C124.641 28.2295 124.423 28.758 124.285 29.2866C125.112 28.2755 125.917 27.4941 126.698 26.9426C127.479 26.3911 128.203 26.1039 128.87 26.0809C129.697 26.0809 130.409 26.529 131.007 27.4252C131.604 28.2984 131.903 29.5164 131.903 31.079C131.903 33.5149 131.26 35.6865 129.973 37.5938C128.686 39.4781 127.227 40.4203 125.595 40.4203C125.044 40.4203 124.366 40.2365 123.561 39.8688C122.78 39.5241 122.056 39.03 121.39 38.3866ZM128.559 27.5631C127.985 27.5631 127.273 27.9997 126.422 28.8729C125.572 29.7232 124.699 30.9067 123.803 32.4233C123.389 33.1357 123.01 33.8366 122.665 34.526C122.343 35.1924 122.045 35.8933 121.769 36.6286C122.251 37.2261 122.906 37.7547 123.734 38.2143C124.561 38.6738 125.25 38.9036 125.802 38.9036C126.859 38.9036 127.87 38.1798 128.835 36.732C129.8 35.2843 130.283 33.5149 130.283 31.4237C130.283 30.2747 130.099 29.344 129.731 28.6317C129.387 27.9193 128.996 27.5631 128.559 27.5631Z" fill="#FF2626"/>
<path d="M106.537 31.1131L107.571 30.1824C108.353 28.4589 108.95 27.3443 109.364 26.8387C109.778 26.3332 110.214 26.2758 110.674 26.6665C111.087 26.2299 111.558 25.8851 112.087 25.6323C112.639 25.3565 113.179 25.2188 113.707 25.2188C114.626 25.2188 115.465 25.4945 116.223 26.046C116.982 26.5976 117.556 27.3558 117.947 28.3209C118.269 29.2401 118.395 30.2857 118.326 31.4577C118.257 32.6067 118.039 33.6639 117.671 34.629C117.257 35.6631 116.671 36.6168 115.913 37.49C115.178 38.3632 114.339 39.0182 113.397 39.4548C111.972 40.1212 110.639 40.236 109.398 39.7994C108.18 39.3857 107.353 38.5125 106.917 37.1797C106.687 36.5592 106.572 35.8239 106.572 34.9736C106.572 34.1004 106.698 33.2617 106.951 32.4574C106.445 32.917 105.928 33.434 105.4 34.0085C104.871 34.5829 104.469 35.0655 104.193 35.4562C104.102 35.5941 103.998 35.7435 103.883 35.9044C103.791 36.0423 103.32 36.9154 102.47 38.524C102.171 39.0755 101.838 39.3973 101.47 39.4892C101.126 39.5812 100.861 39.5121 100.678 39.2823C100.494 39.0985 100.459 38.6619 100.574 37.9725C100.712 37.2831 101.08 36.1457 101.677 34.5601C102.895 31.274 103.504 29.6194 103.504 29.5964C103.504 29.5734 103.516 29.5275 103.539 29.4585C103.584 28.7002 103.688 28.206 103.849 27.9762C104.033 27.7235 104.308 27.4937 104.676 27.2868C105.251 26.9651 105.607 26.9767 105.745 27.3214C105.905 27.6661 105.859 28.1371 105.607 28.7346C105.354 29.3091 105.067 30.01 104.745 30.8372C104.423 31.6645 104.228 32.1931 104.159 32.4229L103.642 34.2153C103.987 33.7327 104.331 33.2961 104.676 32.9054C105.044 32.4918 105.664 31.8944 106.537 31.1131ZM113.879 26.7699C113.259 26.7699 112.639 26.9652 112.018 27.3559C111.398 27.7465 110.812 28.3324 110.26 29.1137C109.111 30.6994 108.422 32.3424 108.192 34.0429C107.962 35.7205 108.203 36.9729 108.916 37.8001C109.352 38.3516 109.904 38.685 110.57 38.7999C111.237 38.8918 111.938 38.7538 112.673 38.3861C113.431 38.0184 114.144 37.3865 114.81 36.4903C115.477 35.5941 115.971 34.6979 116.292 33.8017C116.706 32.5838 116.832 31.3428 116.671 30.0789C116.534 28.815 116.108 27.8959 115.396 27.3214C115.166 27.1606 114.914 27.0341 114.638 26.9422C114.385 26.8273 114.132 26.7699 113.879 26.7699Z" fill="#FF2626"/>
<path d="M89.0007 35.5577C88.9777 33.4665 89.5407 31.6511 90.6897 30.1114C91.8617 28.5718 93.1026 27.802 94.4124 27.802C95.2397 27.802 95.9751 28.1007 96.6185 28.6982C97.2619 29.2957 97.5837 30.0425 97.5837 30.9387C97.5837 31.2375 97.5377 31.4558 97.4458 31.5936C97.3539 31.7315 97.193 31.8005 96.9632 31.8005C96.9402 31.8005 96.9402 31.812 96.9632 31.8349C96.9862 31.8349 96.7334 31.2949 96.2049 30.2149C96.067 29.9161 95.8946 29.6978 95.6878 29.5599C95.481 29.3991 95.2282 29.3186 94.9295 29.3186C93.7345 29.3416 92.6889 30.0195 91.7927 31.3524C90.8965 32.6852 90.4484 34.087 90.4484 35.5577C90.4484 36.5228 90.6322 37.2812 90.9999 37.8327C91.3676 38.3842 91.8617 38.66 92.4821 38.66C93.746 38.66 95.0099 37.7637 96.2738 35.9713C97.5607 34.1789 98.2041 32.329 98.2041 30.4217C98.2041 29.4335 98.0203 28.5258 97.6526 27.6986C97.2849 26.8713 96.7449 26.1244 96.0325 25.458C94.332 23.8265 93.4128 22.8728 93.2749 22.597C93.16 22.2983 93.1026 21.9996 93.1026 21.7008C93.1026 20.8276 93.7001 20.0233 94.895 19.2879C96.1129 18.5526 97.9054 17.8977 100.272 17.3232C101.743 16.9785 102.823 16.9095 103.512 17.1163C104.225 17.3002 104.581 17.7483 104.581 18.4607C104.581 18.6905 104.569 18.8513 104.546 18.9432C104.524 19.0122 104.489 19.0467 104.443 19.0467C104.305 19.0696 104.167 19.0237 104.029 18.9088C103.892 18.7709 103.593 18.702 103.133 18.702C101.64 18.702 99.8472 19.0467 97.756 19.736C95.6878 20.4254 94.6537 21.1033 94.6537 21.7698C94.6537 22.0225 94.7341 22.2868 94.895 22.5626C95.0788 22.8153 95.5729 23.2864 96.3772 23.9758C97.5262 24.918 98.365 25.9291 98.8935 27.0092C99.445 28.0662 99.7208 29.2957 99.7208 30.6974C99.7208 32.9495 98.928 35.0521 97.3424 37.0054C95.7797 38.9357 94.0677 39.9124 92.2064 39.9353C91.2872 39.9353 90.5173 39.5447 89.8969 38.7634C89.2994 37.982 89.0007 36.9135 89.0007 35.5577Z" fill="#FF2626"/>
</svg>
