<svg width="374" height="336" viewBox="0 0 374 336" fill="none" xmlns="http://www.w3.org/2000/svg">
<path d="M337.554 13.7398C337.554 9.79417 338.669 6.70633 340.899 4.47619C343.301 2.07452 346.474 0.873688 350.42 0.873688H360.713C364.658 0.873688 367.746 2.07452 369.976 4.47619C372.378 6.70633 373.578 9.79417 373.578 13.7398V322.783C373.578 326.729 372.378 329.903 369.976 332.304C367.746 334.534 364.658 335.649 360.713 335.649H350.42C346.474 335.649 343.301 334.534 340.899 332.304C338.669 329.903 337.554 326.729 337.554 322.783L337.554 13.7398ZM350.42 11.1666C348.704 11.1666 347.847 12.0243 347.847 13.7398V322.783C347.847 324.499 348.704 325.356 350.42 325.356H360.713C362.428 325.356 363.286 324.499 363.286 322.783V13.7398C363.286 12.0243 362.428 11.1666 360.713 11.1666H350.42Z" fill="white"/>
<path d="M273.299 0.873901H309.324V11.1668H296.458L296.458 335.645H286.165L286.165 11.1668H273.299V0.873901Z" fill="white"/>
<path d="M208.97 24.0326V13.7398C208.97 9.79417 210.085 6.70633 212.315 4.47619C214.716 2.07452 217.89 0.873688 221.836 0.873688H232.128C236.074 0.873688 239.162 2.07452 241.392 4.47619C243.794 6.70633 244.995 9.79417 244.995 13.7398V18.8862H234.702V13.7398C234.702 12.0243 233.844 11.1666 232.128 11.1666H221.836C220.12 11.1666 219.262 12.0243 219.262 13.7398V24.0326C219.262 25.7481 220.12 26.8632 221.836 27.3778L235.216 31.4949C238.133 32.3527 240.449 33.9824 242.164 36.3841C244.051 38.7856 244.995 41.5305 244.995 44.6185V322.783C244.995 326.729 243.794 329.903 241.392 332.304C239.162 334.534 236.074 335.649 232.128 335.649H221.836C217.89 335.649 214.716 334.534 212.315 332.304C210.085 329.903 208.97 326.729 208.97 322.783V317.637H219.262V322.783C219.262 324.499 220.12 325.356 221.836 325.356H232.128C233.844 325.356 234.702 324.499 234.702 322.783V44.6185C234.702 42.903 233.844 41.7877 232.128 41.273L218.748 37.156C215.831 36.2982 213.43 34.6686 211.543 32.2669C209.827 29.8653 208.97 27.1205 208.97 24.0326Z" fill="white"/>
<path d="M144.568 13.7398C144.568 9.79417 145.683 6.70633 147.913 4.47619C150.315 2.07452 153.489 0.873688 157.434 0.873688H167.727C171.673 0.873688 174.761 2.07452 176.991 4.47619C179.392 6.70633 180.593 9.79417 180.593 13.7398V322.783C180.593 326.729 179.392 329.903 176.991 332.304C174.761 334.534 171.673 335.649 167.727 335.649H157.434C153.489 335.649 150.315 334.534 147.913 332.304C145.683 329.903 144.568 326.729 144.568 322.783L144.568 13.7398ZM157.434 11.1666C155.719 11.1666 154.861 12.0243 154.861 13.7398V322.783C154.861 324.499 155.719 325.356 157.434 325.356H167.727C169.443 325.356 170.3 324.499 170.3 322.783V13.7398C170.3 12.0243 169.443 11.1666 167.727 11.1666H157.434Z" fill="white"/>
<path d="M72.4395 0.873688H95.5982C99.5439 0.873688 102.632 2.07452 104.862 4.47619C107.264 6.70633 108.464 9.79417 108.464 13.7398V297.051C108.464 300.997 107.264 304.17 104.862 306.572C102.632 308.802 99.5439 309.917 95.5982 309.917L108.464 335.649H96.8848L84.019 309.917H82.7324V335.649H72.4395L72.4395 0.873688ZM95.5982 299.624C97.3137 299.624 98.1714 298.767 98.1714 297.051V13.7398C98.1714 12.0243 97.3137 11.1666 95.5982 11.1666H82.7324V299.624H95.5982Z" fill="white"/>
<path d="M0.325195 0.873688H23.4841C27.4297 0.873688 30.5176 2.07452 32.7477 4.47619C35.1494 6.70633 36.3502 9.79417 36.3502 13.7398V297.051C36.3502 300.997 35.1494 304.17 32.7477 306.572C30.5176 308.802 27.4297 309.917 23.4841 309.917H10.6181V335.649H0.325195L0.325195 0.873688ZM23.4841 299.624C25.1996 299.624 26.0573 298.767 26.0573 297.051V13.7398C26.0573 12.0243 25.1996 11.1666 23.4841 11.1666H10.6181V299.624H23.4841Z" fill="white"/>
</svg>
